<svg xmlns="http://www.w3.org/2000/svg" width="32" height="32" viewBox="0 0 32 32">
  <metadata><?xpacket begin="﻿" id="W5M0MpCehiHzreSzNTczkc9d"?>
<x:xmpmeta xmlns:x="adobe:ns:meta/" x:xmptk="Adobe XMP Core 5.6-c140 79.160451, 2017/05/06-01:08:21        ">
   <rdf:RDF xmlns:rdf="http://www.w3.org/1999/02/22-rdf-syntax-ns#">
      <rdf:Description rdf:about=""/>
   </rdf:RDF>
</x:xmpmeta>
                                                                                                    
                                                                                                    
                                                                                                    
                                                                                                    
                                                                                                    
                                                                                                    
                                                                                                    
                                                                                                    
                                                                                                    
                                                                                                    
                                                                                                    
                                                                                                    
                                                                                                    
                                                                                                    
                                                                                                    
                                                                                                    
                                                                                                    
                                                                                                    
                                                                                                    
                                                                                                    
                           
<?xpacket end="w"?></metadata>
<defs>
    <style>
      .cls-1 {
        fill: #d8bba3;
        fill-rule: evenodd;
      }
    </style>
  </defs>
  <path id="interface_-_arrow_left" data-name="interface - arrow left" class="cls-1" d="M761,2210a16,16,0,1,0,16,16A16,16,0,0,0,761,2210Zm0,2a14,14,0,1,0,14,14A14,14,0,0,0,761,2212Zm2.8,8.19a0.717,0.717,0,0,0-.983,0l-5.615,5.35a0.632,0.632,0,0,0,0,.93,0.717,0.717,0,0,0,.983,0l5.615-5.34A0.643,0.643,0,0,0,763.8,2220.19Zm-6.6,5.33a0.717,0.717,0,0,1,.983,0l5.615,5.35a0.643,0.643,0,0,1,0,.94,0.717,0.717,0,0,1-.983,0l-5.615-5.35A0.643,0.643,0,0,1,757.2,2225.52Z" transform="translate(-745 -2210)"/>
</svg>
