<svg xmlns="http://www.w3.org/2000/svg" width="32" height="32" viewBox="0 0 32 32">
  <metadata><?xpacket begin="﻿" id="W5M0MpCehiHzreSzNTczkc9d"?>
<x:xmpmeta xmlns:x="adobe:ns:meta/" x:xmptk="Adobe XMP Core 5.6-c140 79.160451, 2017/05/06-01:08:21        ">
   <rdf:RDF xmlns:rdf="http://www.w3.org/1999/02/22-rdf-syntax-ns#">
      <rdf:Description rdf:about=""/>
   </rdf:RDF>
</x:xmpmeta>
                                                                                                    
                                                                                                    
                                                                                                    
                                                                                                    
                                                                                                    
                                                                                                    
                                                                                                    
                                                                                                    
                                                                                                    
                                                                                                    
                                                                                                    
                                                                                                    
                                                                                                    
                                                                                                    
                                                                                                    
                                                                                                    
                                                                                                    
                                                                                                    
                                                                                                    
                                                                                                    
                           
<?xpacket end="w"?></metadata>
<defs>
    <style>
      .cls-1 {
        fill: #56534c;
        fill-rule: evenodd;
      }
    </style>
  </defs>
  <path id="interface_-_arrow_right" data-name="interface - arrow right" class="cls-1" d="M1155,2242a16,16,0,1,0-16-16A16,16,0,0,0,1155,2242Zm0-2a14,14,0,1,0-14-14A14,14,0,0,0,1155,2240Zm-2.8-8.19a0.713,0.713,0,0,0,.98,0l5.62-5.35a0.635,0.635,0,0,0,0-.93,0.713,0.713,0,0,0-.98,0l-5.62,5.34A0.647,0.647,0,0,0,1152.2,2231.81Zm6.6-5.33a0.713,0.713,0,0,1-.98,0l-5.62-5.35a0.647,0.647,0,0,1,0-.94,0.713,0.713,0,0,1,.98,0l5.62,5.35A0.647,0.647,0,0,1,1158.8,2226.48Z" transform="translate(-1139 -2210)"/>
</svg>
