<svg xmlns="http://www.w3.org/2000/svg" width="20" height="20.03" viewBox="0 0 20 20.03">
  <metadata><?xpacket begin="﻿" id="W5M0MpCehiHzreSzNTczkc9d"?>
<x:xmpmeta xmlns:x="adobe:ns:meta/" x:xmptk="Adobe XMP Core 5.6-c140 79.160451, 2017/05/06-01:08:21        ">
   <rdf:RDF xmlns:rdf="http://www.w3.org/1999/02/22-rdf-syntax-ns#">
      <rdf:Description rdf:about=""/>
   </rdf:RDF>
</x:xmpmeta>
                                                                                                    
                                                                                                    
                                                                                                    
                                                                                                    
                                                                                                    
                                                                                                    
                                                                                                    
                                                                                                    
                                                                                                    
                                                                                                    
                                                                                                    
                                                                                                    
                                                                                                    
                                                                                                    
                                                                                                    
                                                                                                    
                                                                                                    
                                                                                                    
                                                                                                    
                                                                                                    
                           
<?xpacket end="w"?></metadata>
<defs>
    <style>
      .cls-1 {
        fill: #fff;
        fill-rule: evenodd;
      }
    </style>
  </defs>
  <path id="interface_-_favorite_star_" data-name="interface - favorite star " class="cls-1" d="M305.687,2106.08a0.633,0.633,0,0,1,.854.22l3.75,6.92a0.6,0.6,0,0,1-.229.83,0.641,0.641,0,0,1-.853-0.22l-3.75-6.93A0.585,0.585,0,0,1,305.687,2106.08Zm0.625,0a0.632,0.632,0,0,0-.853.22l-3.75,6.92a0.6,0.6,0,0,0,.228.83,0.642,0.642,0,0,0,.854-0.22l3.75-6.93A0.585,0.585,0,0,0,306.312,2106.08Zm3.438,6.79h5.625a0.625,0.625,0,1,1,0,1.25H309.75A0.625,0.625,0,1,1,309.75,2112.87Zm-13.125,0h5.625a0.625,0.625,0,1,1,0,1.25h-5.625A0.625,0.625,0,1,1,296.625,2112.87Zm-0.446.18a0.625,0.625,0,0,1,.878,0l5.014,5.02a0.618,0.618,0,0,1-.878.87l-5.014-5.01A0.624,0.624,0,0,1,296.179,2113.05Zm19.642,0a0.625,0.625,0,0,0-.878,0l-5.014,5.02a0.618,0.618,0,0,0,.878.87l5.014-5.01A0.624,0.624,0,0,0,315.821,2113.05Zm-14.041,4.85a0.635,0.635,0,0,1,.459.78l-1.849,6.84a0.648,0.648,0,0,1-1.254-.33l1.848-6.84A0.644,0.644,0,0,1,301.78,2117.9Zm8.44,0a0.635,0.635,0,0,0-.459.78l1.849,6.84a0.648,0.648,0,0,0,1.254-.33l-1.849-6.84A0.643,0.643,0,0,0,310.22,2117.9Zm-3.8,2.66a0.684,0.684,0,0,0-.917,0l-6.2,4.4a0.571,0.571,0,0,0,.007.85,0.686,0.686,0,0,0,.918.01l6.2-4.41A0.571,0.571,0,0,0,306.422,2120.56Zm-0.844,0a0.684,0.684,0,0,1,.917,0l6.2,4.4a0.569,0.569,0,0,1-.007.85,0.685,0.685,0,0,1-.917.01l-6.2-4.41A0.57,0.57,0,0,1,305.578,2120.56Z" transform="translate(-296 -2105.97)"/>
</svg>
